<svg xmlns="http://www.w3.org/2000/svg" viewBox="0 0 800 800" width="800" height="800">
<rect width="800" height="800" fill="#F0EEE6"/>
<rect x="160" y="120" width="40" height="40" fill="#D97757"/>
<rect x="200" y="120" width="40" height="40" fill="#D97757"/>
<rect x="560" y="120" width="40" height="40" fill="#D97757"/>
<rect x="600" y="120" width="40" height="40" fill="#D97757"/>
<rect x="160" y="160" width="40" height="40" fill="#D97757"/>
<rect x="200" y="160" width="40" height="40" fill="#D97757"/>
<rect x="560" y="160" width="40" height="40" fill="#D97757"/>
<rect x="600" y="160" width="40" height="40" fill="#D97757"/>
<rect x="160" y="200" width="40" height="40" fill="#D97757"/>
<rect x="200" y="200" width="40" height="40" fill="#D97757"/>
<rect x="240" y="200" width="40" height="40" fill="#D97757"/>
<rect x="280" y="200" width="40" height="40" fill="#D97757"/>
<rect x="320" y="200" width="40" height="40" fill="#D97757"/>
<rect x="360" y="200" width="40" height="40" fill="#D97757"/>
<rect x="400" y="200" width="40" height="40" fill="#D97757"/>
<rect x="440" y="200" width="40" height="40" fill="#D97757"/>
<rect x="480" y="200" width="40" height="40" fill="#D97757"/>
<rect x="520" y="200" width="40" height="40" fill="#D97757"/>
<rect x="560" y="200" width="40" height="40" fill="#D97757"/>
<rect x="600" y="200" width="40" height="40" fill="#D97757"/>
<rect x="160" y="240" width="40" height="40" fill="#D97757"/>
<rect x="200" y="240" width="40" height="40" fill="#D97757"/>
<rect x="240" y="240" width="40" height="40" fill="#1A1A18"/>
<rect x="280" y="240" width="40" height="40" fill="#1A1A18"/>
<rect x="320" y="240" width="40" height="40" fill="#D97757"/>
<rect x="360" y="240" width="40" height="40" fill="#D97757"/>
<rect x="400" y="240" width="40" height="40" fill="#D97757"/>
<rect x="440" y="240" width="40" height="40" fill="#D97757"/>
<rect x="480" y="240" width="40" height="40" fill="#1A1A18"/>
<rect x="520" y="240" width="40" height="40" fill="#1A1A18"/>
<rect x="560" y="240" width="40" height="40" fill="#D97757"/>
<rect x="600" y="240" width="40" height="40" fill="#D97757"/>
<rect x="160" y="280" width="40" height="40" fill="#D97757"/>
<rect x="200" y="280" width="40" height="40" fill="#D97757"/>
<rect x="240" y="280" width="40" height="40" fill="#1A1A18"/>
<rect x="280" y="280" width="40" height="40" fill="#1A1A18"/>
<rect x="320" y="280" width="40" height="40" fill="#D97757"/>
<rect x="360" y="280" width="40" height="40" fill="#D97757"/>
<rect x="400" y="280" width="40" height="40" fill="#D97757"/>
<rect x="440" y="280" width="40" height="40" fill="#D97757"/>
<rect x="480" y="280" width="40" height="40" fill="#1A1A18"/>
<rect x="520" y="280" width="40" height="40" fill="#1A1A18"/>
<rect x="560" y="280" width="40" height="40" fill="#D97757"/>
<rect x="600" y="280" width="40" height="40" fill="#D97757"/>
<rect x="160" y="320" width="40" height="40" fill="#D97757"/>
<rect x="200" y="320" width="40" height="40" fill="#D97757"/>
<rect x="240" y="320" width="40" height="40" fill="#D97757"/>
<rect x="280" y="320" width="40" height="40" fill="#D97757"/>
<rect x="320" y="320" width="40" height="40" fill="#E2906E"/>
<rect x="360" y="320" width="40" height="40" fill="#E2906E"/>
<rect x="400" y="320" width="40" height="40" fill="#E2906E"/>
<rect x="440" y="320" width="40" height="40" fill="#E2906E"/>
<rect x="480" y="320" width="40" height="40" fill="#D97757"/>
<rect x="520" y="320" width="40" height="40" fill="#D97757"/>
<rect x="560" y="320" width="40" height="40" fill="#D97757"/>
<rect x="600" y="320" width="40" height="40" fill="#D97757"/>
<rect x="160" y="360" width="40" height="40" fill="#D97757"/>
<rect x="200" y="360" width="40" height="40" fill="#D97757"/>
<rect x="240" y="360" width="40" height="40" fill="#D97757"/>
<rect x="280" y="360" width="40" height="40" fill="#D97757"/>
<rect x="320" y="360" width="40" height="40" fill="#E2906E"/>
<rect x="360" y="360" width="40" height="40" fill="#1A1A18"/>
<rect x="400" y="360" width="40" height="40" fill="#1A1A18"/>
<rect x="440" y="360" width="40" height="40" fill="#E2906E"/>
<rect x="480" y="360" width="40" height="40" fill="#D97757"/>
<rect x="520" y="360" width="40" height="40" fill="#D97757"/>
<rect x="560" y="360" width="40" height="40" fill="#D97757"/>
<rect x="600" y="360" width="40" height="40" fill="#D97757"/>
<rect x="160" y="400" width="40" height="40" fill="#D97757"/>
<rect x="200" y="400" width="40" height="40" fill="#D97757"/>
<rect x="240" y="400" width="40" height="40" fill="#D97757"/>
<rect x="280" y="400" width="40" height="40" fill="#1A1A18"/>
<rect x="320" y="400" width="40" height="40" fill="#1A1A18"/>
<rect x="360" y="400" width="40" height="40" fill="#1A1A18"/>
<rect x="400" y="400" width="40" height="40" fill="#1A1A18"/>
<rect x="440" y="400" width="40" height="40" fill="#1A1A18"/>
<rect x="480" y="400" width="40" height="40" fill="#1A1A18"/>
<rect x="520" y="400" width="40" height="40" fill="#D97757"/>
<rect x="560" y="400" width="40" height="40" fill="#D97757"/>
<rect x="600" y="400" width="40" height="40" fill="#D97757"/>
<rect x="160" y="440" width="40" height="40" fill="#D97757"/>
<rect x="200" y="440" width="40" height="40" fill="#D97757"/>
<rect x="240" y="440" width="40" height="40" fill="#D97757"/>
<rect x="280" y="440" width="40" height="40" fill="#1A1A18"/>
<rect x="320" y="440" width="40" height="40" fill="#1A1A18"/>
<rect x="360" y="440" width="40" height="40" fill="#1A1A18"/>
<rect x="400" y="440" width="40" height="40" fill="#1A1A18"/>
<rect x="440" y="440" width="40" height="40" fill="#1A1A18"/>
<rect x="480" y="440" width="40" height="40" fill="#1A1A18"/>
<rect x="520" y="440" width="40" height="40" fill="#D97757"/>
<rect x="560" y="440" width="40" height="40" fill="#D97757"/>
<rect x="600" y="440" width="40" height="40" fill="#D97757"/>
<rect x="160" y="480" width="40" height="40" fill="#D97757"/>
<rect x="200" y="480" width="40" height="40" fill="#D97757"/>
<rect x="240" y="480" width="40" height="40" fill="#D97757"/>
<rect x="280" y="480" width="40" height="40" fill="#D97757"/>
<rect x="320" y="480" width="40" height="40" fill="#D97757"/>
<rect x="360" y="480" width="40" height="40" fill="#D14B3A"/>
<rect x="400" y="480" width="40" height="40" fill="#D14B3A"/>
<rect x="440" y="480" width="40" height="40" fill="#1A1A18"/>
<rect x="480" y="480" width="40" height="40" fill="#D97757"/>
<rect x="520" y="480" width="40" height="40" fill="#D97757"/>
<rect x="560" y="480" width="40" height="40" fill="#D97757"/>
<rect x="600" y="480" width="40" height="40" fill="#D97757"/>
<rect x="160" y="520" width="40" height="40" fill="#D97757"/>
<rect x="200" y="520" width="40" height="40" fill="#D97757"/>
<rect x="240" y="520" width="40" height="40" fill="#D97757"/>
<rect x="280" y="520" width="40" height="40" fill="#D97757"/>
<rect x="320" y="520" width="40" height="40" fill="#D97757"/>
<rect x="360" y="520" width="40" height="40" fill="#D14B3A"/>
<rect x="400" y="520" width="40" height="40" fill="#D14B3A"/>
<rect x="440" y="520" width="40" height="40" fill="#D97757"/>
<rect x="480" y="520" width="40" height="40" fill="#D97757"/>
<rect x="520" y="520" width="40" height="40" fill="#D97757"/>
<rect x="560" y="520" width="40" height="40" fill="#D97757"/>
<rect x="600" y="520" width="40" height="40" fill="#D97757"/>
<rect x="160" y="560" width="40" height="40" fill="#D97757"/>
<rect x="200" y="560" width="40" height="40" fill="#D97757"/>
<rect x="240" y="560" width="40" height="40" fill="#D97757"/>
<rect x="280" y="560" width="40" height="40" fill="#D97757"/>
<rect x="320" y="560" width="40" height="40" fill="#D97757"/>
<rect x="360" y="560" width="40" height="40" fill="#D14B3A"/>
<rect x="400" y="560" width="40" height="40" fill="#D14B3A"/>
<rect x="440" y="560" width="40" height="40" fill="#D97757"/>
<rect x="480" y="560" width="40" height="40" fill="#D97757"/>
<rect x="520" y="560" width="40" height="40" fill="#D97757"/>
<rect x="560" y="560" width="40" height="40" fill="#D97757"/>
<rect x="600" y="560" width="40" height="40" fill="#D97757"/>
<rect x="160" y="600" width="40" height="40" fill="#D97757"/>
<rect x="200" y="600" width="40" height="40" fill="#D97757"/>
<rect x="240" y="600" width="40" height="40" fill="#D97757"/>
<rect x="280" y="600" width="40" height="40" fill="#D97757"/>
<rect x="320" y="600" width="40" height="40" fill="#D97757"/>
<rect x="360" y="600" width="40" height="40" fill="#D97757"/>
<rect x="400" y="600" width="40" height="40" fill="#D97757"/>
<rect x="440" y="600" width="40" height="40" fill="#D97757"/>
<rect x="480" y="600" width="40" height="40" fill="#D97757"/>
<rect x="520" y="600" width="40" height="40" fill="#D97757"/>
<rect x="560" y="600" width="40" height="40" fill="#D97757"/>
<rect x="600" y="600" width="40" height="40" fill="#D97757"/>
<rect x="160" y="640" width="40" height="40" fill="#D97757"/>
<rect x="200" y="640" width="40" height="40" fill="#D97757"/>
<rect x="320" y="640" width="40" height="40" fill="#D97757"/>
<rect x="360" y="640" width="40" height="40" fill="#D97757"/>
<rect x="480" y="640" width="40" height="40" fill="#D97757"/>
<rect x="520" y="640" width="40" height="40" fill="#D97757"/>
<rect x="160" y="680" width="40" height="40" fill="#D97757"/>
<rect x="200" y="680" width="40" height="40" fill="#D97757"/>
<rect x="320" y="680" width="40" height="40" fill="#D97757"/>
<rect x="360" y="680" width="40" height="40" fill="#D97757"/>
<rect x="480" y="680" width="40" height="40" fill="#D97757"/>
<rect x="520" y="680" width="40" height="40" fill="#D97757"/>
</svg>